HIERARCHY
ROOT Hips
{
  OFFSET 3.13124 94.3669 -3.18751
  CHANNELS  6 Xposition Yposition Zposition Zrotation Xrotation Yrotation
  JOINT LeftUpLeg
  {
    OFFSET 8.64259 1.95398 -2.38835
    CHANNELS 3 Zrotation Xrotation Yrotation
    JOINT LeftLeg
    {
      OFFSET 43.7702 0 0
      CHANNELS 3 Zrotation Xrotation Yrotation
      JOINT LeftFoot
      {
        OFFSET 40.6238 0 0
        CHANNELS 3 Zrotation Xrotation Yrotation
        JOINT LeftToeBase
        {
          OFFSET 12.7242 0 0
          CHANNELS 3 Zrotation Xrotation Yrotation
          End Site
          {
            OFFSET 0 0 0
          }
        }
      }
    }
  }
  JOINT RightUpLeg
  {
    OFFSET -8.2249 1.95398 -2.59336
    CHANNELS 3 Zrotation Xrotation Yrotation
    JOINT RightLeg
    {
      OFFSET 43.5653 0 0
      CHANNELS 3 Zrotation Xrotation Yrotation
      JOINT RightFoot
      {
        OFFSET 40.6238 0 0
        CHANNELS 3 Zrotation Xrotation Yrotation
        JOINT RightToeBase
        {
          OFFSET 12.7242 0 0
          CHANNELS 3 Zrotation Xrotation Yrotation
          End Site
          {
            OFFSET 0 0 0
          }
        }
      }
    }
  }
  JOINT Spine
  {
    OFFSET 0.165834 0.87714 6.61349
    CHANNELS 3 Zrotation Xrotation Yrotation
    JOINT Spine1
    {
      OFFSET 7.38962 1.71661e-005 0
      CHANNELS 3 Zrotation Xrotation Yrotation
      JOINT Spine2
      {
        OFFSET 11.9445 1.14441e-005 0
        CHANNELS 3 Zrotation Xrotation Yrotation
        JOINT Spine3
        {
          OFFSET 14.7254 4.19617e-005 0
          CHANNELS 3 Zrotation Xrotation Yrotation
          JOINT Spine4
          {
            OFFSET 10.9679 0 0
            CHANNELS 3 Zrotation Xrotation Yrotation
            JOINT RightShoulder
            {
              OFFSET 2.46616 -1.6653 3.69651
              CHANNELS 3 Zrotation Xrotation Yrotation
              JOINT RightArm
              {
                OFFSET 13.0012 0 0
                CHANNELS 3 Zrotation Xrotation Yrotation
                JOINT RightForeArm
                {
                  OFFSET 28.7848 1.52588e-005 0
                  CHANNELS 3 Zrotation Xrotation Yrotation
                  JOINT RightHand
                  {
                    OFFSET 26.5688 1.52588e-005 0
                    CHANNELS 3 Zrotation Xrotation Yrotation
                    End Site
                    {
                      OFFSET 0 0 0
                    }
                  }
                }
              }
            }
            JOINT LeftShoulder
            {
              OFFSET 2.38034 -1.29275 -3.75231
              CHANNELS 3 Zrotation Xrotation Yrotation
              JOINT LeftArm
              {
                OFFSET 16.3182 6.10352e-005 0
                CHANNELS 3 Zrotation Xrotation Yrotation
                JOINT LeftForeArm
                {
                  OFFSET 27.0901 0 0
                  CHANNELS 3 Zrotation Xrotation Yrotation
                  JOINT LeftHand
                  {
                    OFFSET 24.5451 1.52588e-005 0
                    CHANNELS 3 Zrotation Xrotation Yrotation
                    End Site
                    {
                      OFFSET 0 0 0
                    }
                  }
                }
              }
            }
            JOINT Neck
            {
              OFFSET 5.0226 -0.0266342 0
              CHANNELS 3 Zrotation Xrotation Yrotation
              JOINT Head
              {
                OFFSET 6.69363 2.86102e-005 0
                CHANNELS 3 Zrotation Xrotation Yrotation
                End Site
                {
                  OFFSET 0 0 0
                }
              }
            }
          }
        }
      }
    }
  }
}
MOTION
Frames:	16
Frame Time:	0.0333333
117.364 93.3698 -127.705 -59.6696 32.7732 -112.106 -179.581 45.7691 93.935 -46.2075 2.89733 0.500002 26.9954 -4.81389 -7.09356 28.7808 4.15477e-006 3.59812e-007 -179.513 33.117 84.7909 -3.88181 1.36409 0.0335376 7.73931 23.6114 38.3684 28.7808 1.40399e-005 2.12784e-005 -5.11445 8.50372 -84.2724 9.44133 -3.45693 3.2554 -2.22949 -3.3104 3.40432 -24.7859 -4.27516 2.06546 -4.77327 -4.27516 2.06545 113.612 9.5554 -21.807 -4.71489 65.8714 -73.4889 -7.64235 0.266837 -10.4429 -5.37983 -0.320015 -0.0162418 -90.4691 -6.65774 59.7924 39.9951 74.2343 -50.3895 -150.88 16.8488 -117.932 2.92011 3.66094 74.5656 45.8286 12.0775 -13.7315 -31.7446 15.953 11.596 
119.71 92.9632 -125.24 -59.3147 32.2543 -111.981 -179.95 45.6703 96.0346 -44.3032 11.6216 1.04707 33.7712 -9.0222 -10.4034 28.7808 4.15477e-006 3.59812e-007 -179.562 35.3824 84.68 -3.8585 -0.223713 -0.0537626 8.96165 23.1548 36.8795 28.7808 1.40399e-005 2.12784e-005 -5.54196 9.15855 -84.1092 8.09614 -3.75398 3.48158 -3.5745 -3.59719 3.64333 -26.1355 -4.62635 2.19172 -6.12291 -4.62634 2.19173 111.605 11.0505 -27.4216 5.00505 65.2192 -84.7237 -9.04011 0.39111 -13.3898 -5.37983 -0.320015 -0.0162418 -90.6846 -3.80574 56.653 58.6081 70.0124 -66.9038 166.331 30.6407 -101.821 29.1119 22.6745 66.4977 51.6891 10.2865 -15.7442 -32.9089 15.3834 13.9407 
121.865 92.3872 -122.876 -58.6058 30.4402 -111.919 -179.906 46.5315 96.1964 -42.4027 18.3311 1.51923 40.8717 -7.63486 -7.88439 28.7808 4.15477e-006 3.59812e-007 -179.698 37.5382 84.1561 -3.877 0.965288 0.0168717 12.8096 23.7831 35.2326 28.7808 1.40399e-005 2.12784e-005 -5.74797 9.73218 -84.2209 6.94544 -3.83206 3.35282 -4.72462 -3.68089 3.51816 -27.2896 -4.66215 2.04522 -7.27694 -4.66217 2.0452 105.377 21.9544 -33.5166 7.81885 59.2685 -81.3735 -7.98549 0.331003 -14.0749 -5.37983 -0.320015 -0.0162418 -91.7851 -3.15403 52.8266 61.8284 64.9568 -67.7478 125.412 29.4147 -77.9231 63.2594 20.0776 26.3429 53.3497 9.07302 -14.3757 -30.4724 13.6619 14.8283 
123.939 91.614 -120.543 -57.6005 27.9604 -112.221 -179.602 48.134 94.6292 -40.778 19.881 1.64948 46.787 -4.49295 -4.52797 28.7808 4.15477e-006 3.59812e-007 -179.87 39.6069 83.2851 -3.93762 4.05638 0.199581 19.4367 25.3128 33.1578 28.7808 1.40399e-005 2.12784e-005 -6.04194 10.5505 -84.3718 5.30079 -4.11675 3.17938 -6.36796 -3.97291 3.35748 -28.9431 -4.88155 1.79361 -8.93045 -4.88154 1.79361 98.9727 37.2915 -46.9341 4.3032 52.2756 -63.9138 -6.79192 0.3872 -13.2361 -5.37983 -0.320015 -0.0162418 -88.9751 -0.120641 58.1578 64.2878 48.4964 -72.4011 91.3757 18.3872 -66.2613 67.7705 -0.732739 -5.28797 48.5845 11.5571 -8.70653 -18.1051 13.8111 13.2172 
125.997 90.9612 -118.324 -56.198 26.3626 -111.845 -179.946 50.73 94.1566 -40.2147 17.4986 1.42425 50.1196 -2.55363 -2.68791 28.7808 4.15477e-006 3.59812e-007 179.959 42.4416 83.576 -3.90494 2.31108 0.100606 22.2589 23.6628 29.6463 28.7808 1.40399e-005 2.12784e-005 -5.16268 11.0649 -85.2295 4.443 -3.33129 3.06589 -7.22764 -3.19317 3.20947 -29.7835 -4.0984 1.92246 -9.77086 -4.0984 1.92247 100.703 33.3542 -51.567 3.13491 49.2336 -71.9457 -3.42812 0.138022 -12.5823 -5.37983 -0.320015 -0.0162418 -92.9023 -2.52432 48.9497 62.1836 49.7558 -66.225 69.7195 5.27303 -62.6517 50.5235 -14.4043 -32.8267 58.3706 1.87023 -18.9092 -31.1765 7.78485 25.6155 
127.953 89.9417 -116.325 -53.7622 24.5888 -112.068 179.81 53.9655 93.5941 -39.5383 15.0397 1.22187 54.5235 0.281015 -0.382161 28.7808 4.15477e-006 3.59812e-007 179.832 45.5514 83.6564 -3.8681 0.0954174 -0.0219009 27.2967 23.6052 27.0689 28.7808 1.40399e-005 2.12784e-005 -4.35079 11.6963 -86.1664 3.29842 -2.68012 2.55301 -8.3725 -2.56519 2.66844 -30.9202 -3.32334 1.62928 -10.9075 -3.32333 1.62926 100.723 33.9871 -55.1051 -1.02997 43.8397 -72.123 0.0212511 0.158758 -12.6685 -5.37983 -0.320015 -0.0162418 -92.9433 -2.64446 48.969 56.9126 36.2236 -62.4202 57.7765 1.22453 -61.9201 22.2204 -12.1463 -55.9518 62.6707 -0.866251 -17.2532 -31.0595 4.51503 26.6628 
129.717 88.7059 -114.81 -51.4158 21.9453 -112.169 179.725 57.0166 92.9137 -38.2578 13.895 1.11014 59.1366 1.8967 0.817037 28.7808 4.15477e-006 3.59812e-007 179.673 48.4322 83.182 -3.84883 -1.31559 -0.0970509 33.9266 23.6875 24.1572 28.7808 1.40399e-005 2.12784e-005 -3.69813 12.6988 -87.0378 1.37547 -2.53384 2.11501 -10.2949 -2.43834 2.22447 -32.844 -3.05225 1.25541 -12.8313 -3.05223 1.2554 100.733 36.0132 -62.6969 4.48774 41.5958 -70.4522 -1.69588 0.194945 -11.5502 -5.37983 -0.320015 -0.0162418 -86.9983 3.42239 61.0348 44.2845 13.0751 -66.2788 40.2021 -0.330138 -63.1528 4.45528 -4.0354 -63.3986 65.5043 -1.3304 -13.5011 -25.3528 3.63925 23.7757 
131.424 87.6194 -113.498 -49.3621 19.3854 -111.798 179.74 60.2386 92.1577 -37.6848 11.952 0.952503 62.6059 3.37274 1.79415 28.7808 4.15477e-006 3.59812e-007 179.589 51.6752 82.9902 -3.90129 0.0882955 -0.016891 37.8556 22.0634 21.0379 28.7808 1.40399e-005 2.12784e-005 -2.31101 12.5536 -88.4993 1.74931 -2.23206 1.32123 -9.92049 -2.17175 1.41821 -32.4696 -2.52589 0.589001 -12.4569 -2.5259 0.589011 103.759 40.4874 -92.8476 8.97291 38.2147 -53.6723 -2.87829 0.0429133 -13.6412 -5.37983 -0.320015 -0.0162418 -93.9012 -5.8489 49.8463 44.5052 16.0207 -55.9941 33.6991 -3.62432 -63.5218 0.0430007 -1.42997 -62.2392 53.0792 -1.42419 -10.6349 -16.0947 2.17913 23.3419 
133.174 86.37 -112.527 -46.9104 16.4333 -112.038 -178.821 66.9139 89.0671 -41.0584 5.32302 0.639467 62.5104 3.63712 2.01398 28.7808 4.15477e-006 3.59812e-007 -179.992 56.6329 82.1315 -6.32019 3.05502 0.158235 42.7234 20.9474 18.3393 28.7808 1.40399e-005 2.12784e-005 -0.841639 12.578 -89.8674 1.72065 -2.15292 0.673892 -9.94875 -2.12119 0.768031 -32.4982 -2.25587 -0.00464606 -12.4855 -2.2559 -0.00463772 104.814 35.5236 -114.167 6.18134 38.9693 -36.4808 -3.43923 0.123115 -19.206 -5.37983 -0.320015 -0.0162418 -96.9293 -9.06212 45.5156 39.3589 9.66895 -49.0974 24.7544 -2.45774 -62.7796 -0.332245 -1.40304 -70.4402 42.7196 -1.67881 -6.59425 -5.82863 1.15828 18.7154 
134.247 83.863 -112.02 -44.7058 12.8498 -113.714 -170.808 74.476 77.9831 -47.5916 -2.39833 0.333855 63.2951 6.85568 3.87018 28.7808 4.15477e-006 3.59812e-007 -173.884 68.2852 74.7457 -23.9763 2.07802 0.0419531 58.6511 21.1039 13.5301 28.7808 1.40399e-005 2.12784e-005 -0.695497 12.5694 -90.0816 1.73515 -1.97813 0.219596 -9.93431 -1.96659 0.306466 -32.4812 -1.95265 -0.385308 -12.4686 -1.95266 -0.385318 101.702 26.9076 -126.591 -2.74132 37.7059 -20.0496 -2.009 -0.0841399 -25.6306 -5.37983 -0.320015 -0.0162418 -99.1892 -9.93799 41.166 35.4308 2.86721 -41.127 15.378 -5.77834 -67.4373 -4.57633 1.36466 -72.1214 32.6627 -2.88858 -5.73061 4.11825 0.678403 17.5412 
135.103 81.2708 -111.735 -41.6007 11.5613 -114.911 -157.889 81.4411 64.8082 -54.2849 -2.48906 0.463124 65.5676 8.5386 4.68774 28.7808 4.15477e-006 3.59812e-007 -164.4 77.1039 66.377 -34.8449 5.64246 0.143111 66.4086 19.6579 10.6294 28.7808 1.40399e-005 2.12784e-005 -0.371444 12.5762 -90.247 1.71708 -1.27949 -0.208322 -9.95324 -1.28741 -0.151794 -32.4926 -1.15774 -0.583262 -12.4799 -1.1577 -0.583272 98.2991 19.7168 -128.445 -3.13664 37.8412 -17.2847 -1.74317 -0.339089 -33.5998 -5.37983 -0.320015 -0.0162418 -100.322 -9.49055 38.1522 29.3398 -6.70082 -36.0898 7.91942 -6.674 -71.0018 -10.8214 5.40996 -70.2482 27.5077 -3.4908 -3.71252 10.0046 -0.0920688 16.4976 
135.584 78.6412 -111.591 -40.0534 11.2987 -115.213 -127.829 85.5413 34.9922 -60.6968 -3.18339 0.567344 68.4415 10.1231 5.32548 28.7808 4.15477e-006 3.59812e-007 -146.618 82.9208 49.7901 -43.8495 7.99881 0.164528 71.7926 17.8353 8.44718 28.7808 1.40399e-005 2.12784e-005 0.0171507 12.7553 -90.4209 1.35713 -0.526556 -0.569626 -10.3138 -0.551115 -0.545906 -32.8484 -0.331024 -0.701538 -12.8358 -0.331018 -0.701541 95.6385 13.8277 -128.703 -2.52895 37.2486 -16.6095 -1.10904 -0.919174 -42.5956 -5.37983 -0.320015 -0.0162418 -100.755 -7.36849 34.7856 25.7094 -19.6011 -29.811 -0.496306 -6.36224 -70.3509 -17.6434 9.95918 -70.9781 25.3585 -4.95148 -5.7676 12.7903 -0.0219609 19.1723 
135.796 75.9956 -111.738 -39.6868 11.0733 -115.525 -68.1295 85.8525 -24.5035 -67.5548 -3.57237 0.711908 70.5123 9.71019 4.94427 28.7808 4.15477e-006 3.59812e-007 -107.225 85.5208 10.9874 -51.2386 8.18638 0.0601233 76.4878 17.396 7.26908 28.7808 1.40399e-005 2.12784e-005 0.35178 13.0119 -90.596 0.843431 0.0615637 -0.886273 -10.8278 0.0225229 -0.888122 -33.3608 0.325083 -0.826803 -13.3482 0.325085 -0.82679 94.6043 10.5341 -126.671 -0.0776443 36.0343 -18.9618 -1.36607 -0.616438 -52.9447 -5.37983 -0.320015 -0.0162418 -100.564 -5.61181 33.0819 23.2068 -30.7643 -28.6949 1.24084 -5.85979 -69.1184 -24.9027 12.9994 -62.9084 25.8071 -5.966 -7.6243 13.0457 0.0314254 21.0547 
135.873 73.5068 -111.944 -40.3257 10.8121 -116.227 -49.819 84.0687 -43.0942 -72.8173 -3.26952 0.863406 73.0957 10.2318 4.99102 28.7808 4.15477e-006 3.59812e-007 -61.6845 84.229 -34.5108 -59.0977 7.7061 -0.113073 78.9453 15.2055 5.87733 28.7808 1.40399e-005 2.12784e-005 0.479057 13.2887 -90.6274 0.292627 0.45666 -0.996862 -11.3786 0.412341 -1.01599 -33.9122 0.73513 -0.813536 -13.8996 0.735135 -0.813554 94.565 9.37215 -124.513 2.42974 35.276 -22.8491 -1.34889 -0.386624 -61.4562 -5.37983 -0.320015 -0.0162418 -99.5114 -3.28074 32.5362 14.4301 -43.8619 -35.2943 15.1299 0.391576 -68.4461 -24.458 18.531 -84.89 28.7028 -7.70859 -11.9055 10.3817 0.168696 24.8071 
135.825 71.338 -112.318 -41.944 11.3962 -115.73 -42.5145 83.228 -50.1008 -78.0124 -3.52824 0.987155 74.6365 9.44748 4.50713 28.7808 4.15477e-006 3.59812e-007 -48.544 83.1844 -47.0603 -65.2276 7.75418 -0.232304 80.7452 13.4679 4.88231 28.7808 1.40399e-005 2.12784e-005 0.678185 13.5842 -90.7398 -0.29729 0.83303 -1.18613 -11.9685 0.780011 -1.22164 -34.5032 1.15098 -0.880958 -14.4905 1.15097 -0.880952 95.522 10.1466 -121.028 6.76808 34.1546 -31.5042 -1.23674 -0.101566 -59.979 -5.37983 -0.320015 -0.0162418 -97.9639 -1.25694 33.5936 0.114995 -51.5725 -49.4412 32.2949 6.03208 -70.9516 -18.8279 18.1073 -100.149 33.2929 -9.16165 -14.7436 5.17992 -0.437324 28.0712 
135.706 69.6099 -112.803 -44.2107 12.5515 -114.186 -39.3696 83.7259 -52.574 -82.3644 -3.9251 1.0855 76.0152 9.45408 4.41007 28.7808 4.15477e-006 3.59812e-007 -46.0446 83.8237 -48.6592 -69.6762 8.7699 -0.263434 82.1099 13.6806 4.74821 28.7808 1.40399e-005 2.12784e-005 0.838833 13.786 -90.8748 -0.701075 1.06827 -1.39053 -12.3724 1.00604 -1.43621 -34.9075 1.43676 -1.00521 -14.8949 1.43676 -1.00523 96.6673 12.1949 -118.49 7.35828 28.8437 -39.3236 -0.517521 -0.344371 -47.3271 -5.37983 -0.320015 -0.0162418 -96.4778 0.0180576 35.6854 -13.9541 -52.6313 -63.8131 60.5426 17.745 -72.8457 -4.10045 3.09665 -116.331 36.1702 -9.42754 -15.9972 1.85005 -0.536409 29.1072 
